<svg xmlns="http://www.w3.org/2000/svg" width="256" height="256"><g stroke-width="0" stroke-miterlimit="10"><path d="M44.133 254.307a5.622 5.622 0 01-5.62-5.62V156.28c0-3.102 2.517-5.62 5.62-5.62s5.62 2.518 5.62 5.62v92.407a5.62 5.62 0 01-5.62 5.62zM211.58 168.2a5.622 5.622 0 01-5.62-5.62V7.027c0-3.103 2.518-5.62 5.62-5.62s5.62 2.517 5.62 5.62V162.58a5.62 5.62 0 01-5.62 5.62zm-83.723 86.107a5.622 5.622 0 01-5.62-5.62V79.867c0-3.102 2.517-5.62 5.62-5.62s5.62 2.518 5.62 5.62v168.82a5.622 5.622 0 01-5.62 5.62z"/><path d="M127.857 85.487c-15.354 0-27.848-12.49-27.848-27.847s12.49-27.847 27.848-27.847c15.356 0 27.847 12.49 27.847 27.847s-12.49 27.847-27.847 27.847zm0-44.451c-9.158 0-16.608 7.45-16.608 16.607s7.45 16.607 16.608 16.607 16.607-7.45 16.607-16.607-7.45-16.607-16.607-16.607zM44.133 161.9c-15.354 0-27.847-12.49-27.847-27.847 0-15.354 12.49-27.847 27.847-27.847s27.847 12.49 27.847 27.847c0 15.356-12.494 27.847-27.847 27.847zm0-44.454c-9.158 0-16.607 7.449-16.607 16.607s7.449 16.607 16.607 16.607 16.607-7.45 16.607-16.607-7.45-16.607-16.607-16.607zm167.447 95.208c-15.353 0-27.844-12.49-27.844-27.847 0-15.354 12.49-27.844 27.845-27.844 15.356 0 27.847 12.49 27.847 27.844 0 15.354-12.49 27.847-27.847 27.847zm0-44.454c-9.157 0-16.604 7.446-16.604 16.604s7.447 16.607 16.605 16.607 16.607-7.45 16.607-16.607-7.45-16.604-16.607-16.604z"/><path d="M44.133 117.446a5.622 5.622 0 01-5.62-5.62V7.026c0-3.102 2.517-5.62 5.62-5.62s5.62 2.518 5.62 5.62v104.8a5.618 5.618 0 01-5.62 5.62zm83.724-76.41a5.622 5.622 0 01-5.62-5.62V7.026c0-3.102 2.517-5.62 5.62-5.62s5.62 2.518 5.62 5.62v28.39a5.622 5.622 0 01-5.62 5.62zm83.723 213.271a5.622 5.622 0 01-5.62-5.62v-41.653c0-3.102 2.518-5.62 5.62-5.62s5.62 2.518 5.62 5.62v41.653a5.622 5.622 0 01-5.62 5.62z"/></g></svg>