<svg width="24" height="24" fill="none" xmlns="http://www.w3.org/2000/svg"><path d="M19.953 7.92c.012.176.012.353.012.53 0 5.423-4.128 11.676-11.675 11.676v-.004A11.616 11.616 0 012 18.282a8.24 8.24 0 006.073-1.7 4.108 4.108 0 01-3.834-2.85 4.09 4.09 0 001.853-.07A4.104 4.104 0 012.8 9.64v-.052c.57.318 1.21.494 1.863.514a4.108 4.108 0 01-1.27-5.48 11.646 11.646 0 008.456 4.288 4.108 4.108 0 016.992-3.742 8.234 8.234 0 002.607-.997 4.118 4.118 0 01-1.804 2.27A8.16 8.16 0 0022 5.795a8.337 8.337 0 01-2.047 2.125z" fill="#000"/></svg>