<svg width="24" height="24" fill="none" xmlns="http://www.w3.org/2000/svg"><path fill-rule="evenodd" clip-rule="evenodd" d="M12.52 3.502c4.753-.253 8.658 3.095 8.882 7.307.224 4.212-3.304 7.954-8.056 8.207-1.67.089-3.71-.229-4.983-.852l-.383-.187-2.513.916.724-2.394-.315-.408c-.847-1.095-1.326-2.77-1.412-4.381-.224-4.212 3.304-7.955 8.057-8.208zm10.88 7.2c-.291-5.459-5.28-9.5-10.985-9.197-5.706.303-10.238 4.852-9.948 10.31.09 1.688.552 3.59 1.519 5.067l-1.012 3.347a1 1 0 001.3 1.229l3.609-1.317c1.632.683 3.813.966 5.569.872 5.705-.303 10.238-4.851 9.947-10.31z" fill="#fff"/></svg>