<svg xmlns="http://www.w3.org/2000/svg" viewBox="0 0 48 48" width="96" height="96" baseProfile="basic"><path fill="#ef4754" stroke="#1d1d1b" stroke-linejoin="round" stroke-miterlimit="10" d="M22.699 9.143c.095-.248.18-.558.001-.754-.172-.188-.473-.145-.72-.087-.911.213-2.36.566-3.035 1.215-.461.443-.742 1.036-1.014 1.615-1.169 2.492-1.846 4.869-3.014 7.361-.234.5-.477 1.011-.875 1.394-.666.641-1.642.812-2.556.953l-2.774.429c1.605-3.535 3.214-7.081 4.386-10.783.222-.7.326-1.66-.332-1.985-.677-.334-1.488.324-1.788 1.017-1.748 4.031-3.115 7.186-4.809 11.267-.157.377-.207.823-.521 1.084-.213.177-4.365 1.263-4.728 1.668-.362.405-.398 1.146.069 1.424.234.14 1.578.933 1.967 1.31s1.138.548 1.4.074c-1.227 4.561-3.121 8.137-3.039 11.329 1.124-.01 1.824-.883 2.232-1.93 1.18-3.032 2.315-6.42 3.495-9.452a26.713 26.713 0 015.145-.555 42.773 42.773 0 00-3.358 9.216c-.182.762-.323 1.636.136 2.271.192.266 2.129 1.584 2.824 2.056l5.273-14.506c.085-.235.173-.474.325-.672.268-.35.697-.528 1.081-.745 1.214-.686 3.307-3.552 3.224-3.875-.276-1.07-1.569-.053-2.118-.308-1.01-.469-.017-1.827.282-2.608a9462.67 9462.67 0 012.841-7.423zm1.918 27.024c-.243.632-1.044 1.163-1.69 1.364-.498-.175-.473-.881-.348-1.393 2.128-8.733 5.341-17.159 8.546-25.557.121-.318.249-.646.485-.89.277-.286 3.781-1.48 3.958-1.436.477.12.477.792.372 1.272a98.819 98.819 0 00-2.262 19.458 253.279 253.279 0 017.568-17.662c.246-.52.498-1.044.862-1.49.943-1.155 2.476-1.61 3.913-2.005.311-.086.682-.159.926.051.285.245.205.698.102 1.06-2.14 7.494-5.257 26.314-5.571 28.026-.146.8-.552 1.795-1.365 1.757-.652-.03-2.344-1.72-2.509-2.169-.085-.231-.072-.485-.054-.73.493-6.881 3.362-13.407 4.039-20.272-3.7 7.022-5.739 13.675-9.158 20.508-.759-.239-1.758-1.078-2.355-1.605-.252-.223-.534-1.704-.476-2.385.708-8.238.793-11.625.797-15.168-.538 2.152-2.311 7.944-2.856 9.582-1.062 3.196-1.717 6.541-2.924 9.684z"/><path fill="none" stroke="#1d1d1b" stroke-linecap="round" stroke-linejoin="round" stroke-miterlimit="10" d="M20.846 33.62c-.597-1.675-1.193-3.35-1.721-5.048-.129-.416-.256-.841-.255-1.277.001-.436.147-.891.48-1.171.333-.28.874-.329 1.197-.036.271.246.329.663.232 1.015-.097.352-.323.653-.555.935-.81.98-1.765 1.853-2.406 2.952-.182.312-.339.648-.369 1.007-.031.359.084.747.365.972.478.383 1.193.163 1.712-.163a5.283 5.283 0 001.964-2.231"/></svg>