<svg data-name="Layer 1" xmlns="http://www.w3.org/2000/svg" viewBox="0 0 638 583.92"><path d="M312 95.17l-3.56 1.24-3.85 2.32-2.76 2.57-1.49 3.22-.93 4.12-.32 3.59.32 3.54.93 4.12 1.49 3.18 2.22 2 3.07 1.74 2.8 1.1 3.66.53h4.35l3.59-.56 3.39-1.61 3.61-2.54 2.51-2.63 1.35-3.47.71-4.37v-3.76l-.73-3.46-1.36-3.91-1.9-2.8-4.41-2.25-5.92-1.2zm-133.42 45.62l-3.83.05-4.26.06-4.62.08-4.91.08-5.13.1-5.27.1-5.35.11-5.34.11-5.27.12-5.13.12-4.91.12-4.62.12-4.26.12-3.83.12-4.05.16-4.57.28-5 .36-5.31.42-5.52.43-5.61.4-5.62.35-5.5.25-5.29.12-5-.05-4.53-.25-4-.49-3.85-1.22-4.52-1.85-3.83-1.68-2.39-1.18-2.81-1.51-2.24-1.47-1.49-1.46-1.72-1.85-1.63-1.39-3.88-1.8-4.86-1.46-4.17-.13-5.51 3-5.49 5.22-3.33 5.35-.16 6.29 1.78 7.49 2.54 6 3.22 3.95 4.64 4 4.39 2.86 3.69 1.39 4.59 1.05 4 .3 5.42-1.29 6.2-2.34 5.34-1.73 4.16-.79 4.94-.75 5.42-.7 5.59-.64 5.44-.54 5-.43 4.24-.31 3.71-.21 4.1-.18 4.43-.16 4.71-.14 4.92-.12 5.08-.1 5.2-.08 5.26-.07 5.25-.06h32.16l6.28-.05h13.52l-.47 3.8-.63 4.1-.78 4.37-.89 4.58-1 4.76-1.08 4.9-1.16 5-1.2 5-1.23 5-1.24 5-1.23 4.92-1.2 4.8-1.16 4.62-1.09 4.42-1 4.16-.91 3.86-.78 3.53-.61 2.89-.69 3.23-.76 3.55-.84 3.86-.9 4.14-1 4.39-1 4.64-1.06 4.86-1.11 5.07-1.14 5.24-1.18 5.41-1.21 5.55-1.23 5.67-1.25 5.77-1.26 5.85-7.46.47-7 .43-6.58.37-6.17.32-5.75.29-5.37.23-5 .2-4.6.15-4.24.13-3.88.09-3.55.06H72.33l-3.57.15-4.17.08-3.2-.88-.34-.56-.27-.81-.05-.71.61-1.24 1.08-1.27 1.05-.88 3.74-2 4.63-1.83 5.25-1.66 5.59-1.5 5.66-1.34 5.45-1.2 5-1.07 4.21-1 4.69-1 5.53-1.05 4.77-.66h2.37l2.8.12 2.38-.17 4.46-1.42 5.07-2.27 4-2.44 2.58-2.47 2.63-3.27 1.57-3.12.07-2.79-.58-3.29-.8-2.78-1.35-3-2-3.36-2.15-2.5-2.61-1.33-3.35-1-2.9-.32-5 1.32-5.73 2.61-4.89 2.19-4.1 1.3-4.87 1.43-5.33 1.51-5.49 1.54-5.32 1.54-4.85 1.48-4.06 1.38-3.54 1.43-4.08 1.51-4.44 1.67-4.76 1.82-4.9 1.93-5 2-5 2.09-4.93 2.14-4.77 2.16-4.52 2.17-4.19 2.16-3.77 2.12-3.26 2-4.78 3.55-5.1 4.68-3 4.79-.06 3.71 1.12 4.36 1.68 3.41 3.35 3 4.68 2.69 4.22 1.88 4.65 1.36 5.74 1.17 6.14 1 5.85.73 4.86.46 4 .25 4.52.16 4.94.08h5.25l5.44-.06 5.5-.1 5.44-.15 5.25-.19 4.95-.2 4.51-.23 4-.24 4.49-.21 5.53-.23 6-.2 6-.12H134l1.19.59.47 1.15.09 1.1-.17 2.34-.36 2.75-.52 3.11-.68 3.49-.83 3.8-1 4.1-1.08 4.38-1.18 4.62-1.27 4.84-1.35 5-1.42 5.21-1.47 5.4-1.51 5.45-1.55 5.55-1.56 5.6-1.56 5.64-1.56 5.65-2.68 5.75-3.51 6.67-2 5.93.34 6.12 1.68 7 2.68 5.25 3.86 2.94 5.38 2.55 5.71 1.86 4.85.85 6-.52 6.93-1.81 5.47-2.49 3.42-3.17 3.41-4.41 2.68-3.9 1.05-2 1.15-2.34 1.2-1.79 1.33-1 3-1.77 5.65-3.42 9.27-5.88-.4 5.21-.73 5.4-.4 3.39-.22 1.59-.51 1.78-.59 1.45-2 2.78-2.54 3.15-1.61 2.94-.31 3.14.36 3.81.59 3.22.86 3.64 1.39 4.17 1.8 3.13 3.3 2.12 4.4 1.7 3.88.88 4.86.22 5.71-.58 4.42-1.6 2.32-3 1.85-4.22 1.3-3.68 1.37-4.67 1.17-5.59.18-4.69-.91-2.2-1.43-2.47-1.05-2.12-1.13-5.08-.77-6.1-.18-5.22.56-3.45 1.1-4 1.07-3.37.88-3.07 1.2-3.59 1.32-2.86.95-1.22 1.27-1.28 1.17-1 3.1-1.63 3.83-1.66 3.24-1.41 3.2-1.88 3.74-2.15 3.35-.79.75.49.76.81.46.78.53 3.76-.27 4.59-.27 3.9-.12 2.2-.12 2.54.24 2 .71 1.25 1 1.27 1 .87 3.46 1.25 4.37.69 3.77.14 3.54-.46 4.07-1 3.32-1.27 2.37-1.44 2.56-2 1.86-2 .7-1.8.42-2.27.19-2 .06-5.73-.43-6.89-.56-6.91-.38-5.73-.15-3-.07-3.54.22-2.95.81-2.85 1.27-3.3 1.31-2.7 1.91-2.56 2.53-2.76 2.34-2.13 1.91-1.17 2.32-1.23 1.9-1.1 1.83-1.12 2.1-1.44 1.54-1.48 2.17-4.22 1.79-5.34.86-4.67-.2-2.19-.59-2.57-.64-2.13-.34-.85-.48-1-.49-.85-1.1-.81-1.42-.91-.87-1v-1.88l.68-2.29.61-2 .51-2.61.61-3.09 1-2.4 1.07-1.19 1.56-1.16 1.44-.38 1.41 1 1.22 1.92.75 1.75 1.1 3.82.79 4.42.54 4.9.34 5.25.19 5.47.08 5.55v15.83l.1 4.57.22 4 .43 4 .6 4.6.71 5 .78 5.34.79 5.5.74 5.49.64 5.34.48 5 .28 4.61v4l-.59 5.42-1.23 6.51-1.34 6.51-.89 5.41-.56 4.3-.41 5.08.31 4.29 1.67 4.05 2.73 4.41 3 3 3.91 1.25 4.88.39 4.12-.22 3.47-1 3.93-1.73 4.2-2.12 3-1.28 3.13-2.34 2.1-2.51 1-4.1.15-5.15-.52-4.32-1.61-4.51-2.61-5.08-2.47-3.85-1.47-1.48-1.88-1.66-1.46-1.56-.78-1.64-.71-2-.48-1.78-.91-3.72-.91-4.16-.89-4.54-.87-4.84-.85-5.07-.82-5.23-.8-5.31-.75-5.31-.71-5.24-.67-5.1-.61-4.89-.56-4.61-.5-4.24-.44-3.81-1.14-6.34-1.07-7.44.9-5.91.69-.61 1.07-.49 1-.32 4.32-.78 5.22-.49 5.67-.24 5.69-.07 5.25.08 4.37.18 4.86.29 5.85.45 6.29.69 6.22 1 5.63 1.32 4.5 1.74 1.29.85 1.32 1.25.78 1.29v.86l-.32 1-.31.85-1.62 4.12-2.1 4.78-2.4 5.17-2.51 5.31-2.44 5.15-2.18 4.76-1.76 4.03-1.79 4.24-2.15 5.08-2.12 5.46-1.77 5.23-1 4.45-.37 4.27.15 5.1.87 4.19 2.18 3.69 3.27 3.75 3.41 2.09 4.83-.77 5.54-2.71 4.61-2.66 1.17-.61 1.73-.9 2.25-1.17 2.79-1.45 3.28-1.71 3.78-2 4.26-2.26 4.7-2.52 5.16-2.8 5.58-3.05 6-3.31 6.38-3.58 6.77-3.84 3.78-2.89 4.41-3.68 4.48-4.06 4-4.07 3-3.68 2.56-4.69 2.26-5.82 1.25-5.2.07-3.08-.44-3.58-1-2.86-4.07-3.85-5.81-3.56-5.1-2.76-4.1-2.11-4.8-2.32-5.37-2.35-5.7-2.39-5.93-2.43.59-1.31.76-1.49.73-1.25.56-1 .73-1 .79-.73 4.49-1.05h5.64l4.86.41 6.12 1.07 6.26 1.13 6.23 1.18 6 1.22 5.71 1.23 5.2 1.22 4.55 1.2 3.73 1.16 2.77 1.08 1.63 1 .44.81.24 1 .08.88-.89 5-1.94 5.8-2.46 6-2.45 5.7-1.89 4.74-1.49 4.11-1.85 4.88-2 5.26-1.93 5.28-1.62 4.96-1.21 4.2-1 4.59-1.06 5.61-.94 6-.7 5.68-.3 4.74v4.11l.36 4.85.95 3.95 1.94 3 2.8 3.07 2.81 2.08 2.85.93 3.59.44 3.07.05 3.95-.68 4.57-1.3 3.74-1.41 5.51-3.33 6.22-4.44 5.22-3.83 4-3.25 4.66-4.23 5-4.24 4.95-3.27 4.58-1.3.75.22.79.51.54.58.36 1 .22 1.26.08 1.1-1 4.79-1.78 5.49-1.31 4.71-.52 3.22-.4 3.81.14 3.15 1 2.56 1.57 2.78 1.59 2.2 1.9 1.78 2.53 1.8 2.39 1.02 3.4.56h4.08l3.47-.54 3.41-1.22 3.85-2 2.91-2.16 1.51-2.62 1.24-3.34.64-2.91-.22-2.39-.65-2.76-.44-2.39-.35-4.9-.16-6-.09-6-.17-5-.27-2.34-.34-2.76v-2.34l1.41-4.63 2.37-5.35 2.53-5.31 1.9-4.51 1.38-4.6 1.44-5.62 1.45-6 1.33-5.67 1.17-4.71.91-4 .87-4.83.9-5.33 1-5.52 1.18-5.44 1.43-5.06 1.74-4.4 2.13-3.43.81-.71 1-.59.87-.13 1 1 .71 1.67.39 1.46.76 4 .5 4.82.31 5.11.13 5.45v5.65l-.12 5.74-.18 5.67-.23 5.48-.22 5.16-.17 4.71-.12 4.13-.06 3.74-.14 4.16-.12 4.41-.15 4.65-.18 4.88-.2 5.06-.22 5.18-.23 5.27-.24 5.31-.24 5.31-.24 5.27-.24 5.18-.23 5-.23 4.87-.21 4.64-.19 4.39-.17 4.08-.14 3.73-.07 3.65v4l.05 4.24.09 4.48.12 4.69.14 4.86.16 5 .15 5.12.14 5.2.11 5.24.08 5.25v10.39l-.1 5.07-.18 5-.27 4.79-.38 4.61-.49 4.38-.61 4.12-.76 3.82-.91 3.51-1.17 2.22-1.7 2.41-1.17 2.15-.85 5.82-.05 6.93.9 5.74 2.22 4.56 3.54 5 3.75 3.4 4.11 1.07 5.18.05 4.39-.53 4.44-1.43 5-2.41 3.5-3 1.36-4.66.19-6-.24-5-.47-6.18-1.07-7.15-1.85-5.81-4-5.07-1.34-3-.13-1.49v-88.27l-.1-3.23-.09-3.6-.1-3.92-.09-4.23-.4-4.52-.09-4.73-.07-4.92-.08-5.08-.06-5.22-.08-5.29-.06-5.37-.05-5.38V341l.12-4.48.2-5.36.26-5.81.27-5.8.26-5.37.2-4.47.17-3.81.17-4.05.19-4.29.18-4.48.19-4.69.2-4.84.2-5 .2-5.13.2-5.25.21-5.34.21-5.42.21-5.47.21-5.51.22-5.52 2.53-3.62 2.51-4.58 1.73-4.05 1.45-5.7 1.12-6.86.08-5.83-1.25-6.13-2.54-6.93-3.65-4.66-4.56-1.2-6 .23-6 1.23-4.6 1.82-4.07 3.54-3.85 5.17-2.25 4.86.09 4.95 1.38 5.81 1.19 5 .59 2.34.61 2.76.23 2.34-.15.91-.29 1-.22.84-.91 3.73-1 4.15-1 4.54-1.09 4.83-1.13 5-1.16 5.19-1.2 5.26-1.17 5.27-1.21 5.17-1.2 5-1.18 4.8-1.16 4.5-1.12 4.12-1.13 3.69-1.29 4.56-1.62 5.46-1.92 5.66-2.23 5.12-2.53 3.84-.36.27-.52.26-.43.12-1.83-.75-2-1.44-1.68-1.2-1.56-.83-1.81-.93-1.34-1-.31-.41-.27-.52-.18-.49-.83-4.39-.56-5.19-.33-5.72-.13-6v-6l.12-5.78.19-5.27.21-4.49.49-4.3.93-5 1.18-5.49 1.24-5.72 1.1-5.7.77-5.44.24-5-.48-4.18-1.54-3.42-2.53-3.63-2.65-2.44-4.54-1.52-5.71-.54-4.71.58-3.64 2.3-3.67 3.61-2.35 3.57-.07 4.86 1.12 5.85.37 4.93-1.85 5.11-3 5.76-2.67 4.88-2.15 4.33-2.67 5.18-2.87 5.54-2.9 5.56-2.73 5.09-2.35 4.23-1.26 2.79-1.59 3.22-1.85 2.2-.44.12h-.54l-.45-.09-1.91-.45-2.32-.77-2.76-1-3.23-1.34-3.73-1.38-4.27-1.45-4.8-1.46-5.44-1.46-6.07-1.38-6.73-1.23-7.43-1-8.15-.78 4.35-7.8 3.58-6.24 2.67-4.23 1.79-2.08 2.27-2.26 2.07-1.79 5.23-3.63 6.39-4 5.44-3.34 2.61-1.59 3.1-1.93 2.39-2 3.39-4.53 3.32-5.83 2.16-5.27 1-5.55.34-6.63-.68-5.55-1.4-3-2.24-3.14-2.49-2-5-.8-6.2.66-5 1.45-4.73 3.23-5 4.71-3.86 4.32-3 4.21-3.18 5.33-3.2 5.75-3 5.44-2.62 4.43-2.43 3.61-2.94 4.2-3.31 4.65-3.33 4.67-3.22 4.54-2.95 4.13-2.39 3.57-2 3.4-2 4.13-2.16 4.61-2.26 4.83-2.38 4.83-2.53 4.63-2.65 4.07-2.81 3.32-3 2.34h-1.41l-5.6-.69-6.51-1.04-5.59-1-5.69-.47-6.6-.71-4.67-2.21-.14-.45v-.53l.14-.44 2.71-3.36 4.17-3.31 4.86-3.11 4.75-2.78 3.86-2.31 3-1.93 3.51-2.12 3.13-1.42 2.15-.3 2.56-.1 2.08-.37 4.5-2.8 4.76-4.12 3.64-3.91 3.23-4.39 3.22-5.54 1.76-5.06v-2.95l-.7-3.39-1.44-2.53-4.18-2.27-5.75-1.34-5.05-.45-4 .54-4.56 1.29-3.74 1.57-3.26 2.19-3.46 3.08-2.69 2.85-1.31 2.75-1.3 3.4-1.45 2.64-3.14 2.64-4.11 2.6-4.74 2.46-5 2.37-4.93 2.29-4.44 2.13-3.62 2-4 2.73-4.64 3.48-4.85 3.66-4.71 3.33-4.07 2.4-3.59 1.64-4.34 1.5-3.66.25-.81-.49-.76-.81-.51-.78-.56-2.49-.12-3.05v-6.56l.12-4.55.21-5 .29-5.28.34-5.41.38-5.42.38-5.26.37-5 .35-4.54.3-4 .22-5.2.36-6.08.73-5.13 2.47-5.6 3.49-6.39 2.25-5.62.46-5.29-.37-6.17-1.58-4.86-4.18-3.39-6-2.56-5.41-.83-6 1.86-6.49 3.9-4.47 4.41-1.07 3.49-.3 4.39-.05 3.71.22 5.79.51 6.8-.07 5.79-.66 3.78-1 4.19-1.25 4.53-1.48 4.78-1.65 4.95-1.77 5.05-1.82 5.08-1.84 5-1.8 4.92-1.71 4.73-1.57 4.49-1.37 4.11-1.13 3.69-1.13 4.09-1.19 4.63-1.23 5.08-1.28 5.4-1.3 5.65-1.31 5.77-1.83.9-2.32.76-2 .31-2.76-.14-3.12-.66-2.33-1.17-.36-.61-.22-.78-.07-.69-.43-4-.2-4.59v-5l.14-5.35.25-5.49.33-5.5.36-5.36.35-5.05.3-4.62.22-4 .13-4.61v-5.54l.09-6 .26-6 .56-5.46 1-4.47 2-3.49 2.85-3.86 1.93-3.49.48-3.22v-3.83l-.46-3.23-1.74-5.66-2.83-6.36-3.64-4.28-5.14-1.19-6.51.41-5.3 1.44-4 2.9-4 4.4-2.32 4.3.51 4.49 1.89 5.27 1.1 4.57-.3 4-.74 4.53-1.1 4.93-1.38 5.2-1.56 5.32-1.64 5.31-1.65 5.16-1.42 4.9-1.36 4.46-1.09 3.9-1 3.92-1.1 4.3-1.24 4.6-1.27 4.9-1.32 5.14-1.36 5.33-1.4 5.47-1.42 5.55-1.44 5.61-.53.76-.79.78-.75.54-1.27.22-1.51-.07-1.27-.15h-2.05l-2.72-.07-2.78-.46-.19-4.08-.2-4.54-.18-4.89-.18-5.14-.17-5.3-.15-5.37-.12-5.32-.1-5.19-.06-5v-8.84l.06-3.69V219.1l.09-5.28.12-5.32.17-5.31.24-5.27.31-5.18.38-5 .46-4.89.57-4.68.66-4.43.78-4.14.9-3.81 1-3.44 1.16-3h6.61l1.57.05 1.65.05 1.75.06 1.83.07 1.93.07 2 .08 2.12.08 2.23.09 2.33.09 2.43.1 2.54.1 2.65.11 2.76.12 2.88.12 3 .12 3.11.13 3.24.13 3.35.14 3.49.14 3.61.15 3.74.15 3.87.15 4 .16 4.14.16 4.29.16 4.43.17 4.57.17 4.72.17 4.86.18 5 .18 5.17.19 5.32.18 5.49.19 5.64.2 5.81.19 6 .2 6.14.2 6.3.2 6.48.2 6.64.21 6.83.2 7 .21 7.18.22 7.37.21 7.55.21 7.74.21 7.93.22 8.12.22 8.31.22 8.51.22 8.71.21 8.91.22 8.69 2.68 5.38 2.75 2.86 1.87 4.76 1.85 6 .86 4.91-.63 4.63-3.5 4.37-5.51 2.6-5.32.63-5-.32-6.13-1.16-6-1.89-4.64-.63-.89-1-1.23-1.56-1.45-1.9-1.54-2.34-1.5-2.76-1.36-3.24-1.09-3.69-.69-4.16-.17-4.63.46-5.09 1.22-5.59 2.1-6.08 3.1-6.59 4.19-2.32.08-2.62.08-2.9.09-3.17.09-3.42.09-3.66.08-3.87.09-4.09.09-4.27.08-4.46.09-4.61.08-4.76.08-4.89.08-5 .07-5.1.08-5.2.07-5.26.06-5.31.06-5.36.06h-5.38l-5.39.05h-59.86l-4.13-.05-3.92-.06-3.81-.07-4.2-.1-4.51-.13-4.8-.15-5-.16-5.2-.19-5.33-.2-5.41-.21-5.44-.22-5.41-.22-5.34-.22-5.22-.22-5-.22-4.83-.2-4.55-.2-4.23-.17-3.85-.16-3.44-.14.69-4 .63-4.38.56-4.68.51-4.92.48-5.11.44-5.24.43-5.33.41-5.35.43-5.33.44-5.24.47-5.11.51-4.92.56-4.68.61-4.38.69-4 .73-3.59 1.37-4.18 2-4.87 2.32-5.22 2.26-5.22 1.86-4.88 1.1-4.18.46-5.61-.2-6.64-.92-5.47-1.79-4.68-2.73-5.49-3.37-4.84-3.7-2.71-5.42.49-6.19 2.88-4.69 3.41-3.25 4.66-2.73 6.17-1.57 5.47.2 6.23 1.17 7.34.71 6.23-.07 4-.21 4.42-.33 4.8-.43 5.09-.52 5.31-.58 5.43-.65 5.47-.68 5.42-.7 5.28-.72 5.07-.7 4.75-.67 4.36-.63 3.88-.67 4-.85 4.44-1 4.82-1.12 5.1-1.22 5.33-1.27 5.46-1.3 5.53zm-12.91 170.17l.88-8.07.95-7.26 1-6.48 1-5.74 1.05-5 1-4.35 1-3.71 1-3.1.91-2.54.29-.95.44-1.05.58-.73 1.07-.35 1.44.11.77 1.33.35 10.71.32 8.91.29 7.3.26 5.86.24 4.63.21 3.58.19 2.71.17 2 .16 1.53h-7.55l-2.54.17-3 .25-2.53.23zm-3.83 21.12l9.64-.08 5.4-.22 3 .3 1 .24 1 .49.76 1.34-.16 8.2-.11 7.57-.05 6.94v26.4l-.06 3.79-.11 3.36-.18 2.95-.25 2.57-.36 2.21-.37 1.1-.53 1.27-.52 1-.34.69-.49.78-.48.61-4.63 3.28-5.9 3.15-5.12 2.49-5.26 2.53-6.27 2.73-5.54 1.52h-1.12l-1.3-.24-1-.39-.56-.73-.49-1-.27-1 1.12-6 1.06-6 1-6 1-6 .94-5.88.91-5.77.89-5.61.89-5.41.89-5.19.89-4.92.91-4.63.93-4.3 1-3.92 1-3.52 1.06-3.08 1.1-2.6 1.17-2.09 1.25-1.54 1.32-1 1.41-.33zm38-1.32l6.33-.06 3.09.16.64.88-.41 1.56-.49 1.89-.41 1.69-2.47 9.16-1.41 5.64-1.59 2.16-.25-.12-.24-.63-.17-1.22-.8-7.73-.8-7.4-1-6zm30.52-20.46l.78-2.36 1-2.78.93-2.3 1.25-4.31 1.66-4.93 2.56-2.34.3.27.22.55.14.49.44 3 .15 3.56.07 3 .22 2.76.22 3.3.22 3.57-2.13.14h-2.53l-2.12-.14-1-.35-1.15-.51-1.27-.57zM229 331.45l11.82.22-.06 11.06-.23 8-.29 5.48-.28 3.57-.16 2.24v1.49l-3.47 1.56-3.24 1.44-2.81 1.05-2.76.75-3.27.78-2.83.54 1.29-6 1.17-5.61.93-4.75 1-4.89 1.14-6 1.13-6 .91-5zm182.35 8.2l1.44-1.14 1.39-.95 1.22-.64 1-.34 1.27-.27 1.1-.05 4 1.19 4.49 2.18 3.73 2 4.49 2.29 5.2 2.88 4 3 .87 1.19.81 1.52.29 1.34-.24.73-.54.76-.54.58-3.48 3-4.52 3.16-5 3.13-4.79 2.82-4 2.27-4.53 2.34-5.57 2.66-5.63 2.53-4.72 2-1.93.88-2.27 1-1.93.22-.56-.51-.52-.84-.34-.73.17-2.17.64-2.51.61-2.1 1.69-6.13 2.25-7.1 2.19-5.91 2.32-4.61 3-5.29 2.82-4.32zm132-57.87l2.6-2 2 .45 1.21 3.87-.9 10.21-.57 7.25-.43 4.83-.48 3-.68 1.65-.47.29h-1.18l-2.29-.44-5.16-1.76-3.33-.95-1.9-.58-.92-.29-1.1-.44-.71-.58.13-1.29.66-1.57.64-1.3 1.8-2.85 2.37-3.23 2-2.78 2.19-3.54 2.54-4.26 2-3.69zm-25.16 47.59l1.63-1.07 2.06-.27h1.78l4.3.44 5 1.12 4.22 1.17 2.74.83 3.1 1.15 2.37 1.42 1.34 1.76 1.27 2.34.83 2.05.54 3.56.17 4.33-.05 3.7-.2 3.64-.41 4.32-.71 3.63-1.07 2.25-1.57 2.51-1.52 2-4.42 4.56-5.63 5-4.93 4-4.91 4-6 4.44-5.42 3.18-2.93 1.17-3.59 1-3-.08-1.71-1.34-1.47-2.13-.83-2 .08-4.91 1.34-5.83 1.32-4.91 1.15-5.63 1.54-6.74 1.72-6.69 1.71-5.44 2-5.26 2.69-6.21 2.89-6.12 2.61-4.94zM264.34 81.71l-4.17 1.1-4.64 2.32-3.44 2.71-1.9 3.32-1.49 4.34-.66 3.82.56 4.84 1.54 5.58 1.95 4.46 2.57 3.52 3.51 3.69 3.44 2.42 3.39.63h4.15l3.4-.6 3.44-2 3.58-3.1 2.49-3.1 1.61-4.32 1-5.39.15-4.62-.81-4.49-1.71-5.06-2.19-3.91-2.73-2.19-3.64-1.95-3.25-1.32-1.69-.34-2.09-.19-2.35-.13z" fill-rule="evenodd"/></svg>