<svg xmlns="http://www.w3.org/2000/svg" viewBox="0 0 64 64" width="128" height="128"><path d="M13 6a7 7 0 00-7 7v38a7 7 0 007 7h38a7 7 0 007-7V13a7 7 0 00-7-7H13zm0 2h38a5 5 0 015 5v38a5 5 0 01-5 5H13a5 5 0 01-5-5V13a5 5 0 015-5zm-1 4a1 1 0 00-1 1v2a1 1 0 002 0v-2a1 1 0 00-1-1zm5 0a1 1 0 00-1 1v2a1 1 0 002 0v-2a1 1 0 00-1-1zm5 0a1 1 0 00-1 1v2a1 1 0 002 0v-2a1 1 0 00-1-1zm5 0a1 1 0 00-1 1v2a1 1 0 002 0v-2a1 1 0 00-1-1zm5 0a1 1 0 00-1 1v2a1 1 0 002 0v-2a1 1 0 00-1-1zm5 0a1 1 0 00-1 1v2a1 1 0 002 0v-2a1 1 0 00-1-1zm5 0a1 1 0 00-1 1v2a1 1 0 002 0v-2a1 1 0 00-1-1zm5 0a1 1 0 00-1 1v2a1 1 0 002 0v-2a1 1 0 00-1-1zm5 0a1 1 0 00-1 1v2a1 1 0 002 0v-2a1 1 0 00-1-1zm-35.969 6.998v9.022c0 2.537 1.977 4.49 4.498 4.49 2.53 0 4.46-1.953 4.46-4.49v-9.022h-2.634v9.022a1.83 1.83 0 01-1.826 1.85 1.834 1.834 0 01-1.824-1.85v-9.022h-2.674zm12.62.002v13.504h2.736v-7.74l3.547 7.74h2.738V19h-2.738v7.725L31.387 19H28.65zm13.492.002v13.506h2.744V19.002h-2.744zM28.65 36.598v13.504h9.022v-2.747h-6.285V36.598H28.65zm-8.125.002c-2.521 0-4.498 2.017-4.498 4.459v4.578c0 2.41 1.985 4.459 4.498 4.459.305 0 .601-.032.881-.088l.936 2.818h2.635l-1.25-4.058c.744-.825 1.265-1.963 1.265-3.131v-4.578a4.436 4.436 0 00-4.467-4.46zm22.987 0a4.442 4.442 0 00-4.467 4.459v4.578a4.457 4.457 0 004.467 4.459c2.521 0 4.459-2.05 4.459-4.46V41.06a4.435 4.435 0 00-4.46-4.46zm-22.987 2.64c1.017 0 1.825.81 1.825 1.819v4.578c0 .888-.808 1.713-1.825 1.713-1.008 0-1.826-.825-1.826-1.713v-4.578a1.82 1.82 0 011.826-1.819zm22.979 0c1 0 1.834.81 1.834 1.819v4.578c0 .888-.825 1.713-1.834 1.713-1.009 0-1.832-.825-1.832-1.713v-4.578a1.82 1.82 0 011.832-1.819z"/></svg>